<?xml version="1.0" encoding="utf-8"?>
<!-- Generator: Adobe Illustrator 25.0.0, SVG Export Plug-In . SVG Version: 6.00 Build 0)  -->
<svg version="1.1" id="Layer_1" xmlns="http://www.w3.org/2000/svg" xmlns:xlink="http://www.w3.org/1999/xlink" x="0px" y="0px"
	 viewBox="0 0 500 500" style="enable-background:new 0 0 500 500;" xml:space="preserve">
<style type="text/css">
	.st0{fill-rule:evenodd;clip-rule:evenodd;fill:#001D26;}
	.st1{fill-rule:evenodd;clip-rule:evenodd;fill:#00C8FF;}
	.st2{fill:#CAF1FE;}
</style>
<g>
	<path class="st0" d="M111.6,56.1c-49.8,0-61.3,29.6-61.3,79.3l0.2,242.1c0,49.9,15.6,66.6,65.4,66.6h266.9
		c49.8,0,66.6-16.6,66.6-66.4V126.4c0-49.9-18.6-70.3-68.4-70.3H111.6z"/>
	<path class="st1" d="M37.4,119v262.5c0,42,32.2,75.8,74.2,75.8h275c42,0,76-33.8,76-75.8V118.6c-0.2-42-34.2-75.8-76.2-75.8H111.6
		c-42,0-74.2,33.8-74.2,75.8V119z M381,60.7c33.8,0,63.6,27.8,63.6,61.6v252c0,33.8-27.4,65-61.3,65H116.6
		c-33.8,0-61.3-28.7-61.3-62.5V125.9c0-33.7,27.4-65.2,61.1-65.2H381z"/>
	<path class="st1" d="M195.6,297.8c0,0.7,0.4,1.1,1.1,1.1h14.2c0.7,0,1.1-0.4,1.1-1.1v-37.9c2.5,0,3.7,0.2,7.4,0.2
		c21.6,0,39.3-10.4,39.3-34.5c0-18.6-11.5-32.9-37.9-32.9c-9.4,0-18.2,0.2-24.3,0.5c-0.7,0-0.9,0.5-0.9,1.1
		C195.6,194.2,195.6,297.8,195.6,297.8z M212,207.9c1.8-0.2,5.3-0.4,9.2-0.4c12.8,0,20.5,6.2,20.5,18.2c0,15.1-10.6,18.9-22,18.9
		c-3.7,0-5.5,0-7.8-0.2V207.9z M314.4,237.4c0.9,0.4,1.4-0.2,1.4-0.9v-13.1c0-0.7-0.2-1.4-0.9-2c-3.2-1.4-9.4-2.7-17.5-2.7
		c-16.6,0-26.2,10.3-26.2,22.5c0,11,5.7,17.5,19.1,24.1c9.6,5,11.9,8,11.9,11.5c0,4.3-3.2,7.4-10.6,7.4c-6.4,0-14-1.8-20-5.7
		c-0.7-0.5-1.1-0.2-1.1,0.7v14c0,0.7,0.2,1.2,0.7,1.6c4.1,2.3,12,4.1,20.4,4.1c15.8,0,27.4-8.1,27.4-23.4c0-10.3-4.8-17.2-19.7-24.4
		c-10.1-5.1-11.9-7.6-11.9-11c0-3.2,2.5-6.9,10.1-6.9C303.4,233.4,310.1,234.9,314.4,237.4z"/>
	<path class="st2" d="M249.9,381.9c-6.2,0-12.2-2.3-17-6.9l-108-108c-9.4-9.4-9.4-24.6,0-33.8l108-108c9.4-9.4,24.6-9.4,33.8,0l0,0
		l108,108c9.4,9.4,9.4,24.6,0,33.8l-108,108C262.1,379.6,256.1,381.9,249.9,381.9z M249.9,123.4c-4.8,0-9.6,1.8-13.3,5.5l-108,108
		c-7.3,7.3-7.3,19.1,0,26.4l108,108c7.3,7.3,19.1,7.3,26.4,0l108-108c7.3-7.3,7.3-19.1,0-26.4l-108-108
		C259.5,125.1,254.7,123.4,249.9,123.4z"/>
</g>
</svg>
